G04 #@! TF.GenerationSoftware,KiCad,Pcbnew,7.0.2*
G04 #@! TF.CreationDate,2024-10-17T18:39:25+08:00*
G04 #@! TF.ProjectId,blinker,626c696e-6b65-4722-9e6b-696361645f70,rev?*
G04 #@! TF.SameCoordinates,Original*
G04 #@! TF.FileFunction,Legend,Top*
G04 #@! TF.FilePolarity,Positive*
%FSLAX46Y46*%
G04 Gerber Fmt 4.6, Leading zero omitted, Abs format (unit mm)*
G04 Created by KiCad (PCBNEW 7.0.2) date 2024-10-17 18:39:25*
%MOMM*%
%LPD*%
G01*
G04 APERTURE LIST*
G04 Aperture macros list*
%AMRoundRect*
0 Rectangle with rounded corners*
0 $1 Rounding radius*
0 $2 $3 $4 $5 $6 $7 $8 $9 X,Y pos of 4 corners*
0 Add a 4 corners polygon primitive as box body*
4,1,4,$2,$3,$4,$5,$6,$7,$8,$9,$2,$3,0*
0 Add four circle primitives for the rounded corners*
1,1,$1+$1,$2,$3*
1,1,$1+$1,$4,$5*
1,1,$1+$1,$6,$7*
1,1,$1+$1,$8,$9*
0 Add four rect primitives between the rounded corners*
20,1,$1+$1,$2,$3,$4,$5,0*
20,1,$1+$1,$4,$5,$6,$7,0*
20,1,$1+$1,$6,$7,$8,$9,0*
20,1,$1+$1,$8,$9,$2,$3,0*%
G04 Aperture macros list end*
%ADD10C,0.150000*%
%ADD11C,0.120000*%
%ADD12C,0.127000*%
%ADD13RoundRect,0.218750X-0.256250X0.218750X-0.256250X-0.218750X0.256250X-0.218750X0.256250X0.218750X0*%
%ADD14C,2.484000*%
%ADD15RoundRect,0.200000X0.275000X-0.200000X0.275000X0.200000X-0.275000X0.200000X-0.275000X-0.200000X0*%
G04 APERTURE END LIST*
D10*
X66408619Y-21845594D02*
X65408619Y-21845594D01*
X65408619Y-21845594D02*
X65408619Y-21607499D01*
X65408619Y-21607499D02*
X65456238Y-21464642D01*
X65456238Y-21464642D02*
X65551476Y-21369404D01*
X65551476Y-21369404D02*
X65646714Y-21321785D01*
X65646714Y-21321785D02*
X65837190Y-21274166D01*
X65837190Y-21274166D02*
X65980047Y-21274166D01*
X65980047Y-21274166D02*
X66170523Y-21321785D01*
X66170523Y-21321785D02*
X66265761Y-21369404D01*
X66265761Y-21369404D02*
X66361000Y-21464642D01*
X66361000Y-21464642D02*
X66408619Y-21607499D01*
X66408619Y-21607499D02*
X66408619Y-21845594D01*
X65408619Y-20417023D02*
X65408619Y-20607499D01*
X65408619Y-20607499D02*
X65456238Y-20702737D01*
X65456238Y-20702737D02*
X65503857Y-20750356D01*
X65503857Y-20750356D02*
X65646714Y-20845594D01*
X65646714Y-20845594D02*
X65837190Y-20893213D01*
X65837190Y-20893213D02*
X66218142Y-20893213D01*
X66218142Y-20893213D02*
X66313380Y-20845594D01*
X66313380Y-20845594D02*
X66361000Y-20797975D01*
X66361000Y-20797975D02*
X66408619Y-20702737D01*
X66408619Y-20702737D02*
X66408619Y-20512261D01*
X66408619Y-20512261D02*
X66361000Y-20417023D01*
X66361000Y-20417023D02*
X66313380Y-20369404D01*
X66313380Y-20369404D02*
X66218142Y-20321785D01*
X66218142Y-20321785D02*
X65980047Y-20321785D01*
X65980047Y-20321785D02*
X65884809Y-20369404D01*
X65884809Y-20369404D02*
X65837190Y-20417023D01*
X65837190Y-20417023D02*
X65789571Y-20512261D01*
X65789571Y-20512261D02*
X65789571Y-20702737D01*
X65789571Y-20702737D02*
X65837190Y-20797975D01*
X65837190Y-20797975D02*
X65884809Y-20845594D01*
X65884809Y-20845594D02*
X65980047Y-20893213D01*
X62344619Y-22074094D02*
X61344619Y-22074094D01*
X61344619Y-22074094D02*
X61344619Y-21835999D01*
X61344619Y-21835999D02*
X61392238Y-21693142D01*
X61392238Y-21693142D02*
X61487476Y-21597904D01*
X61487476Y-21597904D02*
X61582714Y-21550285D01*
X61582714Y-21550285D02*
X61773190Y-21502666D01*
X61773190Y-21502666D02*
X61916047Y-21502666D01*
X61916047Y-21502666D02*
X62106523Y-21550285D01*
X62106523Y-21550285D02*
X62201761Y-21597904D01*
X62201761Y-21597904D02*
X62297000Y-21693142D01*
X62297000Y-21693142D02*
X62344619Y-21835999D01*
X62344619Y-21835999D02*
X62344619Y-22074094D01*
X61344619Y-20597904D02*
X61344619Y-21074094D01*
X61344619Y-21074094D02*
X61820809Y-21121713D01*
X61820809Y-21121713D02*
X61773190Y-21074094D01*
X61773190Y-21074094D02*
X61725571Y-20978856D01*
X61725571Y-20978856D02*
X61725571Y-20740761D01*
X61725571Y-20740761D02*
X61773190Y-20645523D01*
X61773190Y-20645523D02*
X61820809Y-20597904D01*
X61820809Y-20597904D02*
X61916047Y-20550285D01*
X61916047Y-20550285D02*
X62154142Y-20550285D01*
X62154142Y-20550285D02*
X62249380Y-20597904D01*
X62249380Y-20597904D02*
X62297000Y-20645523D01*
X62297000Y-20645523D02*
X62344619Y-20740761D01*
X62344619Y-20740761D02*
X62344619Y-20978856D01*
X62344619Y-20978856D02*
X62297000Y-21074094D01*
X62297000Y-21074094D02*
X62249380Y-21121713D01*
X58280619Y-22074094D02*
X57280619Y-22074094D01*
X57280619Y-22074094D02*
X57280619Y-21835999D01*
X57280619Y-21835999D02*
X57328238Y-21693142D01*
X57328238Y-21693142D02*
X57423476Y-21597904D01*
X57423476Y-21597904D02*
X57518714Y-21550285D01*
X57518714Y-21550285D02*
X57709190Y-21502666D01*
X57709190Y-21502666D02*
X57852047Y-21502666D01*
X57852047Y-21502666D02*
X58042523Y-21550285D01*
X58042523Y-21550285D02*
X58137761Y-21597904D01*
X58137761Y-21597904D02*
X58233000Y-21693142D01*
X58233000Y-21693142D02*
X58280619Y-21835999D01*
X58280619Y-21835999D02*
X58280619Y-22074094D01*
X57613952Y-20645523D02*
X58280619Y-20645523D01*
X57233000Y-20883618D02*
X57947285Y-21121713D01*
X57947285Y-21121713D02*
X57947285Y-20502666D01*
X54216619Y-22074094D02*
X53216619Y-22074094D01*
X53216619Y-22074094D02*
X53216619Y-21835999D01*
X53216619Y-21835999D02*
X53264238Y-21693142D01*
X53264238Y-21693142D02*
X53359476Y-21597904D01*
X53359476Y-21597904D02*
X53454714Y-21550285D01*
X53454714Y-21550285D02*
X53645190Y-21502666D01*
X53645190Y-21502666D02*
X53788047Y-21502666D01*
X53788047Y-21502666D02*
X53978523Y-21550285D01*
X53978523Y-21550285D02*
X54073761Y-21597904D01*
X54073761Y-21597904D02*
X54169000Y-21693142D01*
X54169000Y-21693142D02*
X54216619Y-21835999D01*
X54216619Y-21835999D02*
X54216619Y-22074094D01*
X53216619Y-21169332D02*
X53216619Y-20550285D01*
X53216619Y-20550285D02*
X53597571Y-20883618D01*
X53597571Y-20883618D02*
X53597571Y-20740761D01*
X53597571Y-20740761D02*
X53645190Y-20645523D01*
X53645190Y-20645523D02*
X53692809Y-20597904D01*
X53692809Y-20597904D02*
X53788047Y-20550285D01*
X53788047Y-20550285D02*
X54026142Y-20550285D01*
X54026142Y-20550285D02*
X54121380Y-20597904D01*
X54121380Y-20597904D02*
X54169000Y-20645523D01*
X54169000Y-20645523D02*
X54216619Y-20740761D01*
X54216619Y-20740761D02*
X54216619Y-21026475D01*
X54216619Y-21026475D02*
X54169000Y-21121713D01*
X54169000Y-21121713D02*
X54121380Y-21169332D01*
X50152619Y-22074094D02*
X49152619Y-22074094D01*
X49152619Y-22074094D02*
X49152619Y-21835999D01*
X49152619Y-21835999D02*
X49200238Y-21693142D01*
X49200238Y-21693142D02*
X49295476Y-21597904D01*
X49295476Y-21597904D02*
X49390714Y-21550285D01*
X49390714Y-21550285D02*
X49581190Y-21502666D01*
X49581190Y-21502666D02*
X49724047Y-21502666D01*
X49724047Y-21502666D02*
X49914523Y-21550285D01*
X49914523Y-21550285D02*
X50009761Y-21597904D01*
X50009761Y-21597904D02*
X50105000Y-21693142D01*
X50105000Y-21693142D02*
X50152619Y-21835999D01*
X50152619Y-21835999D02*
X50152619Y-22074094D01*
X49247857Y-21121713D02*
X49200238Y-21074094D01*
X49200238Y-21074094D02*
X49152619Y-20978856D01*
X49152619Y-20978856D02*
X49152619Y-20740761D01*
X49152619Y-20740761D02*
X49200238Y-20645523D01*
X49200238Y-20645523D02*
X49247857Y-20597904D01*
X49247857Y-20597904D02*
X49343095Y-20550285D01*
X49343095Y-20550285D02*
X49438333Y-20550285D01*
X49438333Y-20550285D02*
X49581190Y-20597904D01*
X49581190Y-20597904D02*
X50152619Y-21169332D01*
X50152619Y-21169332D02*
X50152619Y-20550285D01*
X51904761Y-57867380D02*
X51857142Y-57915000D01*
X51857142Y-57915000D02*
X51714285Y-57962619D01*
X51714285Y-57962619D02*
X51619047Y-57962619D01*
X51619047Y-57962619D02*
X51476190Y-57915000D01*
X51476190Y-57915000D02*
X51380952Y-57819761D01*
X51380952Y-57819761D02*
X51333333Y-57724523D01*
X51333333Y-57724523D02*
X51285714Y-57534047D01*
X51285714Y-57534047D02*
X51285714Y-57391190D01*
X51285714Y-57391190D02*
X51333333Y-57200714D01*
X51333333Y-57200714D02*
X51380952Y-57105476D01*
X51380952Y-57105476D02*
X51476190Y-57010238D01*
X51476190Y-57010238D02*
X51619047Y-56962619D01*
X51619047Y-56962619D02*
X51714285Y-56962619D01*
X51714285Y-56962619D02*
X51857142Y-57010238D01*
X51857142Y-57010238D02*
X51904761Y-57057857D01*
X52904761Y-57962619D02*
X52571428Y-57486428D01*
X52333333Y-57962619D02*
X52333333Y-56962619D01*
X52333333Y-56962619D02*
X52714285Y-56962619D01*
X52714285Y-56962619D02*
X52809523Y-57010238D01*
X52809523Y-57010238D02*
X52857142Y-57057857D01*
X52857142Y-57057857D02*
X52904761Y-57153095D01*
X52904761Y-57153095D02*
X52904761Y-57295952D01*
X52904761Y-57295952D02*
X52857142Y-57391190D01*
X52857142Y-57391190D02*
X52809523Y-57438809D01*
X52809523Y-57438809D02*
X52714285Y-57486428D01*
X52714285Y-57486428D02*
X52333333Y-57486428D01*
X53285714Y-57057857D02*
X53333333Y-57010238D01*
X53333333Y-57010238D02*
X53428571Y-56962619D01*
X53428571Y-56962619D02*
X53666666Y-56962619D01*
X53666666Y-56962619D02*
X53761904Y-57010238D01*
X53761904Y-57010238D02*
X53809523Y-57057857D01*
X53809523Y-57057857D02*
X53857142Y-57153095D01*
X53857142Y-57153095D02*
X53857142Y-57248333D01*
X53857142Y-57248333D02*
X53809523Y-57391190D01*
X53809523Y-57391190D02*
X53238095Y-57962619D01*
X53238095Y-57962619D02*
X53857142Y-57962619D01*
X54476190Y-56962619D02*
X54571428Y-56962619D01*
X54571428Y-56962619D02*
X54666666Y-57010238D01*
X54666666Y-57010238D02*
X54714285Y-57057857D01*
X54714285Y-57057857D02*
X54761904Y-57153095D01*
X54761904Y-57153095D02*
X54809523Y-57343571D01*
X54809523Y-57343571D02*
X54809523Y-57581666D01*
X54809523Y-57581666D02*
X54761904Y-57772142D01*
X54761904Y-57772142D02*
X54714285Y-57867380D01*
X54714285Y-57867380D02*
X54666666Y-57915000D01*
X54666666Y-57915000D02*
X54571428Y-57962619D01*
X54571428Y-57962619D02*
X54476190Y-57962619D01*
X54476190Y-57962619D02*
X54380952Y-57915000D01*
X54380952Y-57915000D02*
X54333333Y-57867380D01*
X54333333Y-57867380D02*
X54285714Y-57772142D01*
X54285714Y-57772142D02*
X54238095Y-57581666D01*
X54238095Y-57581666D02*
X54238095Y-57343571D01*
X54238095Y-57343571D02*
X54285714Y-57153095D01*
X54285714Y-57153095D02*
X54333333Y-57057857D01*
X54333333Y-57057857D02*
X54380952Y-57010238D01*
X54380952Y-57010238D02*
X54476190Y-56962619D01*
X55142857Y-56962619D02*
X55761904Y-56962619D01*
X55761904Y-56962619D02*
X55428571Y-57343571D01*
X55428571Y-57343571D02*
X55571428Y-57343571D01*
X55571428Y-57343571D02*
X55666666Y-57391190D01*
X55666666Y-57391190D02*
X55714285Y-57438809D01*
X55714285Y-57438809D02*
X55761904Y-57534047D01*
X55761904Y-57534047D02*
X55761904Y-57772142D01*
X55761904Y-57772142D02*
X55714285Y-57867380D01*
X55714285Y-57867380D02*
X55666666Y-57915000D01*
X55666666Y-57915000D02*
X55571428Y-57962619D01*
X55571428Y-57962619D02*
X55285714Y-57962619D01*
X55285714Y-57962619D02*
X55190476Y-57915000D01*
X55190476Y-57915000D02*
X55142857Y-57867380D01*
X56142857Y-57057857D02*
X56190476Y-57010238D01*
X56190476Y-57010238D02*
X56285714Y-56962619D01*
X56285714Y-56962619D02*
X56523809Y-56962619D01*
X56523809Y-56962619D02*
X56619047Y-57010238D01*
X56619047Y-57010238D02*
X56666666Y-57057857D01*
X56666666Y-57057857D02*
X56714285Y-57153095D01*
X56714285Y-57153095D02*
X56714285Y-57248333D01*
X56714285Y-57248333D02*
X56666666Y-57391190D01*
X56666666Y-57391190D02*
X56095238Y-57962619D01*
X56095238Y-57962619D02*
X56714285Y-57962619D01*
X63548619Y-25058666D02*
X63072428Y-25391999D01*
X63548619Y-25630094D02*
X62548619Y-25630094D01*
X62548619Y-25630094D02*
X62548619Y-25249142D01*
X62548619Y-25249142D02*
X62596238Y-25153904D01*
X62596238Y-25153904D02*
X62643857Y-25106285D01*
X62643857Y-25106285D02*
X62739095Y-25058666D01*
X62739095Y-25058666D02*
X62881952Y-25058666D01*
X62881952Y-25058666D02*
X62977190Y-25106285D01*
X62977190Y-25106285D02*
X63024809Y-25153904D01*
X63024809Y-25153904D02*
X63072428Y-25249142D01*
X63072428Y-25249142D02*
X63072428Y-25630094D01*
X62977190Y-24487237D02*
X62929571Y-24582475D01*
X62929571Y-24582475D02*
X62881952Y-24630094D01*
X62881952Y-24630094D02*
X62786714Y-24677713D01*
X62786714Y-24677713D02*
X62739095Y-24677713D01*
X62739095Y-24677713D02*
X62643857Y-24630094D01*
X62643857Y-24630094D02*
X62596238Y-24582475D01*
X62596238Y-24582475D02*
X62548619Y-24487237D01*
X62548619Y-24487237D02*
X62548619Y-24296761D01*
X62548619Y-24296761D02*
X62596238Y-24201523D01*
X62596238Y-24201523D02*
X62643857Y-24153904D01*
X62643857Y-24153904D02*
X62739095Y-24106285D01*
X62739095Y-24106285D02*
X62786714Y-24106285D01*
X62786714Y-24106285D02*
X62881952Y-24153904D01*
X62881952Y-24153904D02*
X62929571Y-24201523D01*
X62929571Y-24201523D02*
X62977190Y-24296761D01*
X62977190Y-24296761D02*
X62977190Y-24487237D01*
X62977190Y-24487237D02*
X63024809Y-24582475D01*
X63024809Y-24582475D02*
X63072428Y-24630094D01*
X63072428Y-24630094D02*
X63167666Y-24677713D01*
X63167666Y-24677713D02*
X63358142Y-24677713D01*
X63358142Y-24677713D02*
X63453380Y-24630094D01*
X63453380Y-24630094D02*
X63501000Y-24582475D01*
X63501000Y-24582475D02*
X63548619Y-24487237D01*
X63548619Y-24487237D02*
X63548619Y-24296761D01*
X63548619Y-24296761D02*
X63501000Y-24201523D01*
X63501000Y-24201523D02*
X63453380Y-24153904D01*
X63453380Y-24153904D02*
X63358142Y-24106285D01*
X63358142Y-24106285D02*
X63167666Y-24106285D01*
X63167666Y-24106285D02*
X63072428Y-24153904D01*
X63072428Y-24153904D02*
X63024809Y-24201523D01*
X63024809Y-24201523D02*
X62977190Y-24296761D01*
X59484619Y-25058666D02*
X59008428Y-25391999D01*
X59484619Y-25630094D02*
X58484619Y-25630094D01*
X58484619Y-25630094D02*
X58484619Y-25249142D01*
X58484619Y-25249142D02*
X58532238Y-25153904D01*
X58532238Y-25153904D02*
X58579857Y-25106285D01*
X58579857Y-25106285D02*
X58675095Y-25058666D01*
X58675095Y-25058666D02*
X58817952Y-25058666D01*
X58817952Y-25058666D02*
X58913190Y-25106285D01*
X58913190Y-25106285D02*
X58960809Y-25153904D01*
X58960809Y-25153904D02*
X59008428Y-25249142D01*
X59008428Y-25249142D02*
X59008428Y-25630094D01*
X58484619Y-24725332D02*
X58484619Y-24058666D01*
X58484619Y-24058666D02*
X59484619Y-24487237D01*
X55420619Y-25058666D02*
X54944428Y-25391999D01*
X55420619Y-25630094D02*
X54420619Y-25630094D01*
X54420619Y-25630094D02*
X54420619Y-25249142D01*
X54420619Y-25249142D02*
X54468238Y-25153904D01*
X54468238Y-25153904D02*
X54515857Y-25106285D01*
X54515857Y-25106285D02*
X54611095Y-25058666D01*
X54611095Y-25058666D02*
X54753952Y-25058666D01*
X54753952Y-25058666D02*
X54849190Y-25106285D01*
X54849190Y-25106285D02*
X54896809Y-25153904D01*
X54896809Y-25153904D02*
X54944428Y-25249142D01*
X54944428Y-25249142D02*
X54944428Y-25630094D01*
X54420619Y-24201523D02*
X54420619Y-24391999D01*
X54420619Y-24391999D02*
X54468238Y-24487237D01*
X54468238Y-24487237D02*
X54515857Y-24534856D01*
X54515857Y-24534856D02*
X54658714Y-24630094D01*
X54658714Y-24630094D02*
X54849190Y-24677713D01*
X54849190Y-24677713D02*
X55230142Y-24677713D01*
X55230142Y-24677713D02*
X55325380Y-24630094D01*
X55325380Y-24630094D02*
X55373000Y-24582475D01*
X55373000Y-24582475D02*
X55420619Y-24487237D01*
X55420619Y-24487237D02*
X55420619Y-24296761D01*
X55420619Y-24296761D02*
X55373000Y-24201523D01*
X55373000Y-24201523D02*
X55325380Y-24153904D01*
X55325380Y-24153904D02*
X55230142Y-24106285D01*
X55230142Y-24106285D02*
X54992047Y-24106285D01*
X54992047Y-24106285D02*
X54896809Y-24153904D01*
X54896809Y-24153904D02*
X54849190Y-24201523D01*
X54849190Y-24201523D02*
X54801571Y-24296761D01*
X54801571Y-24296761D02*
X54801571Y-24487237D01*
X54801571Y-24487237D02*
X54849190Y-24582475D01*
X54849190Y-24582475D02*
X54896809Y-24630094D01*
X54896809Y-24630094D02*
X54992047Y-24677713D01*
X51356619Y-25058666D02*
X50880428Y-25391999D01*
X51356619Y-25630094D02*
X50356619Y-25630094D01*
X50356619Y-25630094D02*
X50356619Y-25249142D01*
X50356619Y-25249142D02*
X50404238Y-25153904D01*
X50404238Y-25153904D02*
X50451857Y-25106285D01*
X50451857Y-25106285D02*
X50547095Y-25058666D01*
X50547095Y-25058666D02*
X50689952Y-25058666D01*
X50689952Y-25058666D02*
X50785190Y-25106285D01*
X50785190Y-25106285D02*
X50832809Y-25153904D01*
X50832809Y-25153904D02*
X50880428Y-25249142D01*
X50880428Y-25249142D02*
X50880428Y-25630094D01*
X50356619Y-24153904D02*
X50356619Y-24630094D01*
X50356619Y-24630094D02*
X50832809Y-24677713D01*
X50832809Y-24677713D02*
X50785190Y-24630094D01*
X50785190Y-24630094D02*
X50737571Y-24534856D01*
X50737571Y-24534856D02*
X50737571Y-24296761D01*
X50737571Y-24296761D02*
X50785190Y-24201523D01*
X50785190Y-24201523D02*
X50832809Y-24153904D01*
X50832809Y-24153904D02*
X50928047Y-24106285D01*
X50928047Y-24106285D02*
X51166142Y-24106285D01*
X51166142Y-24106285D02*
X51261380Y-24153904D01*
X51261380Y-24153904D02*
X51309000Y-24201523D01*
X51309000Y-24201523D02*
X51356619Y-24296761D01*
X51356619Y-24296761D02*
X51356619Y-24534856D01*
X51356619Y-24534856D02*
X51309000Y-24630094D01*
X51309000Y-24630094D02*
X51261380Y-24677713D01*
X47292619Y-25058666D02*
X46816428Y-25391999D01*
X47292619Y-25630094D02*
X46292619Y-25630094D01*
X46292619Y-25630094D02*
X46292619Y-25249142D01*
X46292619Y-25249142D02*
X46340238Y-25153904D01*
X46340238Y-25153904D02*
X46387857Y-25106285D01*
X46387857Y-25106285D02*
X46483095Y-25058666D01*
X46483095Y-25058666D02*
X46625952Y-25058666D01*
X46625952Y-25058666D02*
X46721190Y-25106285D01*
X46721190Y-25106285D02*
X46768809Y-25153904D01*
X46768809Y-25153904D02*
X46816428Y-25249142D01*
X46816428Y-25249142D02*
X46816428Y-25630094D01*
X46625952Y-24201523D02*
X47292619Y-24201523D01*
X46245000Y-24439618D02*
X46959285Y-24677713D01*
X46959285Y-24677713D02*
X46959285Y-24058666D01*
X43228619Y-25058666D02*
X42752428Y-25391999D01*
X43228619Y-25630094D02*
X42228619Y-25630094D01*
X42228619Y-25630094D02*
X42228619Y-25249142D01*
X42228619Y-25249142D02*
X42276238Y-25153904D01*
X42276238Y-25153904D02*
X42323857Y-25106285D01*
X42323857Y-25106285D02*
X42419095Y-25058666D01*
X42419095Y-25058666D02*
X42561952Y-25058666D01*
X42561952Y-25058666D02*
X42657190Y-25106285D01*
X42657190Y-25106285D02*
X42704809Y-25153904D01*
X42704809Y-25153904D02*
X42752428Y-25249142D01*
X42752428Y-25249142D02*
X42752428Y-25630094D01*
X42228619Y-24725332D02*
X42228619Y-24106285D01*
X42228619Y-24106285D02*
X42609571Y-24439618D01*
X42609571Y-24439618D02*
X42609571Y-24296761D01*
X42609571Y-24296761D02*
X42657190Y-24201523D01*
X42657190Y-24201523D02*
X42704809Y-24153904D01*
X42704809Y-24153904D02*
X42800047Y-24106285D01*
X42800047Y-24106285D02*
X43038142Y-24106285D01*
X43038142Y-24106285D02*
X43133380Y-24153904D01*
X43133380Y-24153904D02*
X43181000Y-24201523D01*
X43181000Y-24201523D02*
X43228619Y-24296761D01*
X43228619Y-24296761D02*
X43228619Y-24582475D01*
X43228619Y-24582475D02*
X43181000Y-24677713D01*
X43181000Y-24677713D02*
X43133380Y-24725332D01*
X46088619Y-22074094D02*
X45088619Y-22074094D01*
X45088619Y-22074094D02*
X45088619Y-21835999D01*
X45088619Y-21835999D02*
X45136238Y-21693142D01*
X45136238Y-21693142D02*
X45231476Y-21597904D01*
X45231476Y-21597904D02*
X45326714Y-21550285D01*
X45326714Y-21550285D02*
X45517190Y-21502666D01*
X45517190Y-21502666D02*
X45660047Y-21502666D01*
X45660047Y-21502666D02*
X45850523Y-21550285D01*
X45850523Y-21550285D02*
X45945761Y-21597904D01*
X45945761Y-21597904D02*
X46041000Y-21693142D01*
X46041000Y-21693142D02*
X46088619Y-21835999D01*
X46088619Y-21835999D02*
X46088619Y-22074094D01*
X46088619Y-20550285D02*
X46088619Y-21121713D01*
X46088619Y-20835999D02*
X45088619Y-20835999D01*
X45088619Y-20835999D02*
X45231476Y-20931237D01*
X45231476Y-20931237D02*
X45326714Y-21026475D01*
X45326714Y-21026475D02*
X45374333Y-21121713D01*
D11*
X63781000Y-19622500D02*
X63781000Y-21907500D01*
X65251000Y-19622500D02*
X63781000Y-19622500D01*
X65251000Y-21907500D02*
X65251000Y-19622500D01*
X59717000Y-19851000D02*
X59717000Y-22136000D01*
X61187000Y-19851000D02*
X59717000Y-19851000D01*
X61187000Y-22136000D02*
X61187000Y-19851000D01*
X55653000Y-19851000D02*
X55653000Y-22136000D01*
X57123000Y-19851000D02*
X55653000Y-19851000D01*
X57123000Y-22136000D02*
X57123000Y-19851000D01*
X51589000Y-19851000D02*
X51589000Y-22136000D01*
X53059000Y-19851000D02*
X51589000Y-19851000D01*
X53059000Y-22136000D02*
X53059000Y-19851000D01*
X47525000Y-19851000D02*
X47525000Y-22136000D01*
X48995000Y-19851000D02*
X47525000Y-19851000D01*
X48995000Y-22136000D02*
X48995000Y-19851000D01*
D12*
X57608630Y-49791900D02*
G75*
G03*
X57174999Y-50394100I201362J-602220D01*
G01*
X57175000Y-55687800D02*
X57175000Y-50394100D01*
X56540000Y-56322800D02*
G75*
G03*
X57175000Y-55687800I0J635000D01*
G01*
X51460000Y-56322800D02*
X56540000Y-56322800D01*
X50825000Y-55687800D02*
G75*
G03*
X51460000Y-56322800I635000J0D01*
G01*
X50825000Y-50394100D02*
X50825000Y-55687800D01*
X50824999Y-50394100D02*
G75*
G03*
X50391370Y-49791902I-634991J-20D01*
G01*
X57608630Y-49791900D02*
G75*
G03*
X50391370Y-49791900I-3608630J10791317D01*
G01*
X57608630Y-49791900D02*
G75*
G03*
X57174999Y-50394100I201362J-602220D01*
G01*
X56540000Y-56322800D02*
G75*
G03*
X57175000Y-55687800I0J635000D01*
G01*
X50825000Y-55687800D02*
G75*
G03*
X51460000Y-56322800I635000J0D01*
G01*
X50824999Y-50394100D02*
G75*
G03*
X50391370Y-49791902I-634991J-20D01*
G01*
X57608630Y-49791900D02*
G75*
G03*
X50391370Y-49791900I-3608630J10791317D01*
G01*
X42250000Y-33750000D02*
X43250000Y-33750000D01*
X49750000Y-54000000D02*
X49750000Y-55000000D01*
X50250000Y-54500000D02*
X49250000Y-54500000D01*
D11*
X63993500Y-25129258D02*
X63993500Y-24654742D01*
X65038500Y-25129258D02*
X65038500Y-24654742D01*
X60974500Y-25129258D02*
X60974500Y-24654742D01*
X59929500Y-25129258D02*
X59929500Y-24654742D01*
X55865500Y-25129258D02*
X55865500Y-24654742D01*
X56910500Y-25129258D02*
X56910500Y-24654742D01*
X52846500Y-25129258D02*
X52846500Y-24654742D01*
X51801500Y-25129258D02*
X51801500Y-24654742D01*
X48782500Y-25129258D02*
X48782500Y-24654742D01*
X47737500Y-25129258D02*
X47737500Y-24654742D01*
X43673500Y-25129258D02*
X43673500Y-24654742D01*
X44718500Y-25129258D02*
X44718500Y-24654742D01*
X43461000Y-19851000D02*
X43461000Y-22136000D01*
X44931000Y-19851000D02*
X43461000Y-19851000D01*
X44931000Y-22136000D02*
X44931000Y-19851000D01*
%LPC*%
D13*
X64516000Y-20320000D03*
X64516000Y-21895000D03*
X60452000Y-20548500D03*
X60452000Y-22123500D03*
X56388000Y-20548500D03*
X56388000Y-22123500D03*
X52324000Y-20548500D03*
X52324000Y-22123500D03*
X48260000Y-20548500D03*
X48260000Y-22123500D03*
D14*
X54000000Y-34052800D03*
X54000000Y-54542800D03*
D15*
X64516000Y-24067000D03*
X64516000Y-25717000D03*
X60452000Y-25717000D03*
X60452000Y-24067000D03*
X56388000Y-24067000D03*
X56388000Y-25717000D03*
X52324000Y-25717000D03*
X52324000Y-24067000D03*
X48260000Y-25717000D03*
X48260000Y-24067000D03*
X44196000Y-24067000D03*
X44196000Y-25717000D03*
D13*
X44196000Y-20548500D03*
X44196000Y-22123500D03*
%LPD*%
M02*
