%TF.GenerationSoftware,KiCad,Pcbnew,7.0.2*%
%TF.CreationDate,2024-10-17T18:40:29+08:00*%
%TF.ProjectId,blinker,626c696e-6b65-4722-9e6b-696361645f70,rev?*%
%TF.SameCoordinates,Original*%
%TF.FileFunction,Drillmap*%
%TF.FilePolarity,Positive*%
%FSLAX45Y45*%
G04 Gerber Fmt 4.5, Leading zero omitted, Abs format (unit mm)*
G04 Created by KiCad (PCBNEW 7.0.2) date 2024-10-17 18:40:29*
%MOMM*%
%LPD*%
G01*
G04 APERTURE LIST*
%ADD10C,0.100000*%
%ADD11C,0.200000*%
G04 APERTURE END LIST*
D10*
X6800000Y-1900000D02*
G75*
G03*
X6650000Y-1750000I-150000J0D01*
G01*
X4150000Y-1750000D02*
G75*
G03*
X4000000Y-1900000I0J-150000D01*
G01*
X4000000Y-5800000D02*
G75*
G03*
X4200000Y-6000000I200000J0D01*
G01*
X6600000Y-6000000D02*
G75*
G03*
X6800000Y-5800000I0J200000D01*
G01*
X4000000Y-1900000D02*
X4000000Y-5800000D01*
X6650000Y-1750000D02*
X4150000Y-1750000D01*
X6800000Y-5800000D02*
X6800000Y-1900000D01*
X4200000Y-6000000D02*
X6600000Y-6000000D01*
D11*
X4242619Y-6317524D02*
X4242619Y-6117524D01*
X4242619Y-6117524D02*
X4290238Y-6117524D01*
X4290238Y-6117524D02*
X4318810Y-6127048D01*
X4318810Y-6127048D02*
X4337857Y-6146095D01*
X4337857Y-6146095D02*
X4347381Y-6165143D01*
X4347381Y-6165143D02*
X4356905Y-6203238D01*
X4356905Y-6203238D02*
X4356905Y-6231809D01*
X4356905Y-6231809D02*
X4347381Y-6269905D01*
X4347381Y-6269905D02*
X4337857Y-6288952D01*
X4337857Y-6288952D02*
X4318810Y-6308000D01*
X4318810Y-6308000D02*
X4290238Y-6317524D01*
X4290238Y-6317524D02*
X4242619Y-6317524D01*
X4442619Y-6317524D02*
X4442619Y-6184190D01*
X4442619Y-6222286D02*
X4452143Y-6203238D01*
X4452143Y-6203238D02*
X4461667Y-6193714D01*
X4461667Y-6193714D02*
X4480714Y-6184190D01*
X4480714Y-6184190D02*
X4499762Y-6184190D01*
X4566429Y-6317524D02*
X4566429Y-6184190D01*
X4566429Y-6117524D02*
X4556905Y-6127048D01*
X4556905Y-6127048D02*
X4566429Y-6136571D01*
X4566429Y-6136571D02*
X4575952Y-6127048D01*
X4575952Y-6127048D02*
X4566429Y-6117524D01*
X4566429Y-6117524D02*
X4566429Y-6136571D01*
X4690238Y-6317524D02*
X4671190Y-6308000D01*
X4671190Y-6308000D02*
X4661667Y-6288952D01*
X4661667Y-6288952D02*
X4661667Y-6117524D01*
X4795000Y-6317524D02*
X4775952Y-6308000D01*
X4775952Y-6308000D02*
X4766429Y-6288952D01*
X4766429Y-6288952D02*
X4766429Y-6117524D01*
X5023571Y-6317524D02*
X5023571Y-6117524D01*
X5023571Y-6117524D02*
X5090238Y-6260381D01*
X5090238Y-6260381D02*
X5156905Y-6117524D01*
X5156905Y-6117524D02*
X5156905Y-6317524D01*
X5337857Y-6317524D02*
X5337857Y-6212762D01*
X5337857Y-6212762D02*
X5328333Y-6193714D01*
X5328333Y-6193714D02*
X5309286Y-6184190D01*
X5309286Y-6184190D02*
X5271190Y-6184190D01*
X5271190Y-6184190D02*
X5252143Y-6193714D01*
X5337857Y-6308000D02*
X5318810Y-6317524D01*
X5318810Y-6317524D02*
X5271190Y-6317524D01*
X5271190Y-6317524D02*
X5252143Y-6308000D01*
X5252143Y-6308000D02*
X5242619Y-6288952D01*
X5242619Y-6288952D02*
X5242619Y-6269905D01*
X5242619Y-6269905D02*
X5252143Y-6250857D01*
X5252143Y-6250857D02*
X5271190Y-6241333D01*
X5271190Y-6241333D02*
X5318810Y-6241333D01*
X5318810Y-6241333D02*
X5337857Y-6231809D01*
X5433095Y-6184190D02*
X5433095Y-6384190D01*
X5433095Y-6193714D02*
X5452143Y-6184190D01*
X5452143Y-6184190D02*
X5490238Y-6184190D01*
X5490238Y-6184190D02*
X5509286Y-6193714D01*
X5509286Y-6193714D02*
X5518810Y-6203238D01*
X5518810Y-6203238D02*
X5528333Y-6222286D01*
X5528333Y-6222286D02*
X5528333Y-6279428D01*
X5528333Y-6279428D02*
X5518810Y-6298476D01*
X5518810Y-6298476D02*
X5509286Y-6308000D01*
X5509286Y-6308000D02*
X5490238Y-6317524D01*
X5490238Y-6317524D02*
X5452143Y-6317524D01*
X5452143Y-6317524D02*
X5433095Y-6308000D01*
X5614048Y-6298476D02*
X5623571Y-6308000D01*
X5623571Y-6308000D02*
X5614048Y-6317524D01*
X5614048Y-6317524D02*
X5604524Y-6308000D01*
X5604524Y-6308000D02*
X5614048Y-6298476D01*
X5614048Y-6298476D02*
X5614048Y-6317524D01*
X5614048Y-6193714D02*
X5623571Y-6203238D01*
X5623571Y-6203238D02*
X5614048Y-6212762D01*
X5614048Y-6212762D02*
X5604524Y-6203238D01*
X5604524Y-6203238D02*
X5614048Y-6193714D01*
X5614048Y-6193714D02*
X5614048Y-6212762D01*
M02*
