G04 #@! TF.GenerationSoftware,KiCad,Pcbnew,7.0.2*
G04 #@! TF.CreationDate,2024-10-17T18:39:25+08:00*
G04 #@! TF.ProjectId,blinker,626c696e-6b65-4722-9e6b-696361645f70,rev?*
G04 #@! TF.SameCoordinates,Original*
G04 #@! TF.FileFunction,Legend,Bot*
G04 #@! TF.FilePolarity,Positive*
%FSLAX46Y46*%
G04 Gerber Fmt 4.6, Leading zero omitted, Abs format (unit mm)*
G04 Created by KiCad (PCBNEW 7.0.2) date 2024-10-17 18:39:25*
%MOMM*%
%LPD*%
G01*
G04 APERTURE LIST*
G04 Aperture macros list*
%AMRoundRect*
0 Rectangle with rounded corners*
0 $1 Rounding radius*
0 $2 $3 $4 $5 $6 $7 $8 $9 X,Y pos of 4 corners*
0 Add a 4 corners polygon primitive as box body*
4,1,4,$2,$3,$4,$5,$6,$7,$8,$9,$2,$3,0*
0 Add four circle primitives for the rounded corners*
1,1,$1+$1,$2,$3*
1,1,$1+$1,$4,$5*
1,1,$1+$1,$6,$7*
1,1,$1+$1,$8,$9*
0 Add four rect primitives between the rounded corners*
20,1,$1+$1,$2,$3,$4,$5,0*
20,1,$1+$1,$4,$5,$6,$7,0*
20,1,$1+$1,$6,$7,$8,$9,0*
20,1,$1+$1,$8,$9,$2,$3,0*%
G04 Aperture macros list end*
%ADD10C,0.150000*%
%ADD11C,0.120000*%
%ADD12R,2.400000X2.000000*%
%ADD13RoundRect,0.075000X0.075000X0.662500X-0.075000X0.662500X-0.075000X-0.662500X0.075000X-0.662500X0*%
%ADD14RoundRect,0.075000X0.662500X0.075000X-0.662500X0.075000X-0.662500X-0.075000X0.662500X-0.075000X0*%
%ADD15C,2.484000*%
%ADD16RoundRect,0.200000X-0.200000X-0.800000X0.200000X-0.800000X0.200000X0.800000X-0.200000X0.800000X0*%
%ADD17RoundRect,0.200000X-0.200000X-0.275000X0.200000X-0.275000X0.200000X0.275000X-0.200000X0.275000X0*%
%ADD18RoundRect,0.250000X-0.650000X0.350000X-0.650000X-0.350000X0.650000X-0.350000X0.650000X0.350000X0*%
%ADD19RoundRect,0.150000X-0.625000X0.150000X-0.625000X-0.150000X0.625000X-0.150000X0.625000X0.150000X0*%
%ADD20RoundRect,0.225000X0.250000X-0.225000X0.250000X0.225000X-0.250000X0.225000X-0.250000X-0.225000X0*%
%ADD21RoundRect,0.225000X-0.250000X0.225000X-0.250000X-0.225000X0.250000X-0.225000X0.250000X0.225000X0*%
G04 APERTURE END LIST*
D10*
X64762428Y-43211809D02*
X65238619Y-43211809D01*
X64238619Y-42878476D02*
X64762428Y-43211809D01*
X64762428Y-43211809D02*
X64238619Y-43545142D01*
X65238619Y-44402285D02*
X65238619Y-43830857D01*
X65238619Y-44116571D02*
X64238619Y-44116571D01*
X64238619Y-44116571D02*
X64381476Y-44021333D01*
X64381476Y-44021333D02*
X64476714Y-43926095D01*
X64476714Y-43926095D02*
X64524333Y-43830857D01*
X54736904Y-39840619D02*
X54736904Y-40650142D01*
X54736904Y-40650142D02*
X54689285Y-40745380D01*
X54689285Y-40745380D02*
X54641666Y-40793000D01*
X54641666Y-40793000D02*
X54546428Y-40840619D01*
X54546428Y-40840619D02*
X54355952Y-40840619D01*
X54355952Y-40840619D02*
X54260714Y-40793000D01*
X54260714Y-40793000D02*
X54213095Y-40745380D01*
X54213095Y-40745380D02*
X54165476Y-40650142D01*
X54165476Y-40650142D02*
X54165476Y-39840619D01*
X53165476Y-40840619D02*
X53736904Y-40840619D01*
X53451190Y-40840619D02*
X53451190Y-39840619D01*
X53451190Y-39840619D02*
X53546428Y-39983476D01*
X53546428Y-39983476D02*
X53641666Y-40078714D01*
X53641666Y-40078714D02*
X53736904Y-40126333D01*
X62142666Y-57362619D02*
X62475999Y-56886428D01*
X62714094Y-57362619D02*
X62714094Y-56362619D01*
X62714094Y-56362619D02*
X62333142Y-56362619D01*
X62333142Y-56362619D02*
X62237904Y-56410238D01*
X62237904Y-56410238D02*
X62190285Y-56457857D01*
X62190285Y-56457857D02*
X62142666Y-56553095D01*
X62142666Y-56553095D02*
X62142666Y-56695952D01*
X62142666Y-56695952D02*
X62190285Y-56791190D01*
X62190285Y-56791190D02*
X62237904Y-56838809D01*
X62237904Y-56838809D02*
X62333142Y-56886428D01*
X62333142Y-56886428D02*
X62714094Y-56886428D01*
X61761713Y-56457857D02*
X61714094Y-56410238D01*
X61714094Y-56410238D02*
X61618856Y-56362619D01*
X61618856Y-56362619D02*
X61380761Y-56362619D01*
X61380761Y-56362619D02*
X61285523Y-56410238D01*
X61285523Y-56410238D02*
X61237904Y-56457857D01*
X61237904Y-56457857D02*
X61190285Y-56553095D01*
X61190285Y-56553095D02*
X61190285Y-56648333D01*
X61190285Y-56648333D02*
X61237904Y-56791190D01*
X61237904Y-56791190D02*
X61809332Y-57362619D01*
X61809332Y-57362619D02*
X61190285Y-57362619D01*
X59094666Y-57358619D02*
X59427999Y-56882428D01*
X59666094Y-57358619D02*
X59666094Y-56358619D01*
X59666094Y-56358619D02*
X59285142Y-56358619D01*
X59285142Y-56358619D02*
X59189904Y-56406238D01*
X59189904Y-56406238D02*
X59142285Y-56453857D01*
X59142285Y-56453857D02*
X59094666Y-56549095D01*
X59094666Y-56549095D02*
X59094666Y-56691952D01*
X59094666Y-56691952D02*
X59142285Y-56787190D01*
X59142285Y-56787190D02*
X59189904Y-56834809D01*
X59189904Y-56834809D02*
X59285142Y-56882428D01*
X59285142Y-56882428D02*
X59666094Y-56882428D01*
X58142285Y-57358619D02*
X58713713Y-57358619D01*
X58427999Y-57358619D02*
X58427999Y-56358619D01*
X58427999Y-56358619D02*
X58523237Y-56501476D01*
X58523237Y-56501476D02*
X58618475Y-56596714D01*
X58618475Y-56596714D02*
X58713713Y-56644333D01*
X41374619Y-43862666D02*
X42088904Y-43862666D01*
X42088904Y-43862666D02*
X42231761Y-43815047D01*
X42231761Y-43815047D02*
X42327000Y-43719809D01*
X42327000Y-43719809D02*
X42374619Y-43576952D01*
X42374619Y-43576952D02*
X42374619Y-43481714D01*
X42374619Y-44862666D02*
X42374619Y-44291238D01*
X42374619Y-44576952D02*
X41374619Y-44576952D01*
X41374619Y-44576952D02*
X41517476Y-44481714D01*
X41517476Y-44481714D02*
X41612714Y-44386476D01*
X41612714Y-44386476D02*
X41660333Y-44291238D01*
X60725380Y-39330333D02*
X60773000Y-39282714D01*
X60773000Y-39282714D02*
X60820619Y-39139857D01*
X60820619Y-39139857D02*
X60820619Y-39044619D01*
X60820619Y-39044619D02*
X60773000Y-38901762D01*
X60773000Y-38901762D02*
X60677761Y-38806524D01*
X60677761Y-38806524D02*
X60582523Y-38758905D01*
X60582523Y-38758905D02*
X60392047Y-38711286D01*
X60392047Y-38711286D02*
X60249190Y-38711286D01*
X60249190Y-38711286D02*
X60058714Y-38758905D01*
X60058714Y-38758905D02*
X59963476Y-38806524D01*
X59963476Y-38806524D02*
X59868238Y-38901762D01*
X59868238Y-38901762D02*
X59820619Y-39044619D01*
X59820619Y-39044619D02*
X59820619Y-39139857D01*
X59820619Y-39139857D02*
X59868238Y-39282714D01*
X59868238Y-39282714D02*
X59915857Y-39330333D01*
X59820619Y-39663667D02*
X59820619Y-40330333D01*
X59820619Y-40330333D02*
X60820619Y-39901762D01*
X59201380Y-39330333D02*
X59249000Y-39282714D01*
X59249000Y-39282714D02*
X59296619Y-39139857D01*
X59296619Y-39139857D02*
X59296619Y-39044619D01*
X59296619Y-39044619D02*
X59249000Y-38901762D01*
X59249000Y-38901762D02*
X59153761Y-38806524D01*
X59153761Y-38806524D02*
X59058523Y-38758905D01*
X59058523Y-38758905D02*
X58868047Y-38711286D01*
X58868047Y-38711286D02*
X58725190Y-38711286D01*
X58725190Y-38711286D02*
X58534714Y-38758905D01*
X58534714Y-38758905D02*
X58439476Y-38806524D01*
X58439476Y-38806524D02*
X58344238Y-38901762D01*
X58344238Y-38901762D02*
X58296619Y-39044619D01*
X58296619Y-39044619D02*
X58296619Y-39139857D01*
X58296619Y-39139857D02*
X58344238Y-39282714D01*
X58344238Y-39282714D02*
X58391857Y-39330333D01*
X58296619Y-40187476D02*
X58296619Y-39997000D01*
X58296619Y-39997000D02*
X58344238Y-39901762D01*
X58344238Y-39901762D02*
X58391857Y-39854143D01*
X58391857Y-39854143D02*
X58534714Y-39758905D01*
X58534714Y-39758905D02*
X58725190Y-39711286D01*
X58725190Y-39711286D02*
X59106142Y-39711286D01*
X59106142Y-39711286D02*
X59201380Y-39758905D01*
X59201380Y-39758905D02*
X59249000Y-39806524D01*
X59249000Y-39806524D02*
X59296619Y-39901762D01*
X59296619Y-39901762D02*
X59296619Y-40092238D01*
X59296619Y-40092238D02*
X59249000Y-40187476D01*
X59249000Y-40187476D02*
X59201380Y-40235095D01*
X59201380Y-40235095D02*
X59106142Y-40282714D01*
X59106142Y-40282714D02*
X58868047Y-40282714D01*
X58868047Y-40282714D02*
X58772809Y-40235095D01*
X58772809Y-40235095D02*
X58725190Y-40187476D01*
X58725190Y-40187476D02*
X58677571Y-40092238D01*
X58677571Y-40092238D02*
X58677571Y-39901762D01*
X58677571Y-39901762D02*
X58725190Y-39806524D01*
X58725190Y-39806524D02*
X58772809Y-39758905D01*
X58772809Y-39758905D02*
X58868047Y-39711286D01*
X57677380Y-39330333D02*
X57725000Y-39282714D01*
X57725000Y-39282714D02*
X57772619Y-39139857D01*
X57772619Y-39139857D02*
X57772619Y-39044619D01*
X57772619Y-39044619D02*
X57725000Y-38901762D01*
X57725000Y-38901762D02*
X57629761Y-38806524D01*
X57629761Y-38806524D02*
X57534523Y-38758905D01*
X57534523Y-38758905D02*
X57344047Y-38711286D01*
X57344047Y-38711286D02*
X57201190Y-38711286D01*
X57201190Y-38711286D02*
X57010714Y-38758905D01*
X57010714Y-38758905D02*
X56915476Y-38806524D01*
X56915476Y-38806524D02*
X56820238Y-38901762D01*
X56820238Y-38901762D02*
X56772619Y-39044619D01*
X56772619Y-39044619D02*
X56772619Y-39139857D01*
X56772619Y-39139857D02*
X56820238Y-39282714D01*
X56820238Y-39282714D02*
X56867857Y-39330333D01*
X56772619Y-40235095D02*
X56772619Y-39758905D01*
X56772619Y-39758905D02*
X57248809Y-39711286D01*
X57248809Y-39711286D02*
X57201190Y-39758905D01*
X57201190Y-39758905D02*
X57153571Y-39854143D01*
X57153571Y-39854143D02*
X57153571Y-40092238D01*
X57153571Y-40092238D02*
X57201190Y-40187476D01*
X57201190Y-40187476D02*
X57248809Y-40235095D01*
X57248809Y-40235095D02*
X57344047Y-40282714D01*
X57344047Y-40282714D02*
X57582142Y-40282714D01*
X57582142Y-40282714D02*
X57677380Y-40235095D01*
X57677380Y-40235095D02*
X57725000Y-40187476D01*
X57725000Y-40187476D02*
X57772619Y-40092238D01*
X57772619Y-40092238D02*
X57772619Y-39854143D01*
X57772619Y-39854143D02*
X57725000Y-39758905D01*
X57725000Y-39758905D02*
X57677380Y-39711286D01*
X59389380Y-48474333D02*
X59437000Y-48426714D01*
X59437000Y-48426714D02*
X59484619Y-48283857D01*
X59484619Y-48283857D02*
X59484619Y-48188619D01*
X59484619Y-48188619D02*
X59437000Y-48045762D01*
X59437000Y-48045762D02*
X59341761Y-47950524D01*
X59341761Y-47950524D02*
X59246523Y-47902905D01*
X59246523Y-47902905D02*
X59056047Y-47855286D01*
X59056047Y-47855286D02*
X58913190Y-47855286D01*
X58913190Y-47855286D02*
X58722714Y-47902905D01*
X58722714Y-47902905D02*
X58627476Y-47950524D01*
X58627476Y-47950524D02*
X58532238Y-48045762D01*
X58532238Y-48045762D02*
X58484619Y-48188619D01*
X58484619Y-48188619D02*
X58484619Y-48283857D01*
X58484619Y-48283857D02*
X58532238Y-48426714D01*
X58532238Y-48426714D02*
X58579857Y-48474333D01*
X58817952Y-49331476D02*
X59484619Y-49331476D01*
X58437000Y-49093381D02*
X59151285Y-48855286D01*
X59151285Y-48855286D02*
X59151285Y-49474333D01*
X60819380Y-48474333D02*
X60867000Y-48426714D01*
X60867000Y-48426714D02*
X60914619Y-48283857D01*
X60914619Y-48283857D02*
X60914619Y-48188619D01*
X60914619Y-48188619D02*
X60867000Y-48045762D01*
X60867000Y-48045762D02*
X60771761Y-47950524D01*
X60771761Y-47950524D02*
X60676523Y-47902905D01*
X60676523Y-47902905D02*
X60486047Y-47855286D01*
X60486047Y-47855286D02*
X60343190Y-47855286D01*
X60343190Y-47855286D02*
X60152714Y-47902905D01*
X60152714Y-47902905D02*
X60057476Y-47950524D01*
X60057476Y-47950524D02*
X59962238Y-48045762D01*
X59962238Y-48045762D02*
X59914619Y-48188619D01*
X59914619Y-48188619D02*
X59914619Y-48283857D01*
X59914619Y-48283857D02*
X59962238Y-48426714D01*
X59962238Y-48426714D02*
X60009857Y-48474333D01*
X59914619Y-48807667D02*
X59914619Y-49426714D01*
X59914619Y-49426714D02*
X60295571Y-49093381D01*
X60295571Y-49093381D02*
X60295571Y-49236238D01*
X60295571Y-49236238D02*
X60343190Y-49331476D01*
X60343190Y-49331476D02*
X60390809Y-49379095D01*
X60390809Y-49379095D02*
X60486047Y-49426714D01*
X60486047Y-49426714D02*
X60724142Y-49426714D01*
X60724142Y-49426714D02*
X60819380Y-49379095D01*
X60819380Y-49379095D02*
X60867000Y-49331476D01*
X60867000Y-49331476D02*
X60914619Y-49236238D01*
X60914619Y-49236238D02*
X60914619Y-48950524D01*
X60914619Y-48950524D02*
X60867000Y-48855286D01*
X60867000Y-48855286D02*
X60819380Y-48807667D01*
X63961380Y-45045333D02*
X64009000Y-44997714D01*
X64009000Y-44997714D02*
X64056619Y-44854857D01*
X64056619Y-44854857D02*
X64056619Y-44759619D01*
X64056619Y-44759619D02*
X64009000Y-44616762D01*
X64009000Y-44616762D02*
X63913761Y-44521524D01*
X63913761Y-44521524D02*
X63818523Y-44473905D01*
X63818523Y-44473905D02*
X63628047Y-44426286D01*
X63628047Y-44426286D02*
X63485190Y-44426286D01*
X63485190Y-44426286D02*
X63294714Y-44473905D01*
X63294714Y-44473905D02*
X63199476Y-44521524D01*
X63199476Y-44521524D02*
X63104238Y-44616762D01*
X63104238Y-44616762D02*
X63056619Y-44759619D01*
X63056619Y-44759619D02*
X63056619Y-44854857D01*
X63056619Y-44854857D02*
X63104238Y-44997714D01*
X63104238Y-44997714D02*
X63151857Y-45045333D01*
X63151857Y-45426286D02*
X63104238Y-45473905D01*
X63104238Y-45473905D02*
X63056619Y-45569143D01*
X63056619Y-45569143D02*
X63056619Y-45807238D01*
X63056619Y-45807238D02*
X63104238Y-45902476D01*
X63104238Y-45902476D02*
X63151857Y-45950095D01*
X63151857Y-45950095D02*
X63247095Y-45997714D01*
X63247095Y-45997714D02*
X63342333Y-45997714D01*
X63342333Y-45997714D02*
X63485190Y-45950095D01*
X63485190Y-45950095D02*
X64056619Y-45378667D01*
X64056619Y-45378667D02*
X64056619Y-45997714D01*
G36*
X49194470Y-27559987D02*
G01*
X49417467Y-27560469D01*
X49619325Y-27561221D01*
X49797348Y-27562229D01*
X49948842Y-27563479D01*
X50071114Y-27564958D01*
X50161469Y-27566652D01*
X50217212Y-27568546D01*
X50235650Y-27570626D01*
X50185655Y-27670374D01*
X50077952Y-27908014D01*
X49996146Y-28130393D01*
X49938113Y-28346456D01*
X49901733Y-28565143D01*
X49884881Y-28795397D01*
X49885437Y-29046160D01*
X49886615Y-29079159D01*
X49896116Y-29244524D01*
X49912216Y-29408333D01*
X49935920Y-29574382D01*
X49968235Y-29746465D01*
X50010168Y-29928378D01*
X50062725Y-30123914D01*
X50126913Y-30336869D01*
X50203739Y-30571038D01*
X50294208Y-30830215D01*
X50399329Y-31118194D01*
X50520107Y-31438771D01*
X50545330Y-31505072D01*
X50661165Y-31814564D01*
X50761384Y-32092249D01*
X50846951Y-32341903D01*
X50918834Y-32567300D01*
X50977999Y-32772217D01*
X51025411Y-32960429D01*
X51062036Y-33135712D01*
X51088841Y-33301840D01*
X51106792Y-33462589D01*
X51116855Y-33621735D01*
X51119997Y-33783052D01*
X51119238Y-33857812D01*
X51107264Y-34058943D01*
X51078569Y-34241504D01*
X51030355Y-34419916D01*
X50959824Y-34608597D01*
X50896136Y-34747303D01*
X50769431Y-34974054D01*
X50611735Y-35210971D01*
X50426251Y-35453952D01*
X50216180Y-35698893D01*
X49984723Y-35941690D01*
X49735084Y-36178240D01*
X49585801Y-36310741D01*
X49424346Y-36449413D01*
X49258288Y-36586916D01*
X49084342Y-36725695D01*
X48899225Y-36868193D01*
X48699651Y-37016854D01*
X48482338Y-37174121D01*
X48244001Y-37342439D01*
X47981355Y-37524251D01*
X47691116Y-37722001D01*
X47370000Y-37938134D01*
X47358601Y-37945772D01*
X47229944Y-38032537D01*
X47107645Y-38115962D01*
X46997102Y-38192296D01*
X46903714Y-38257786D01*
X46832881Y-38308680D01*
X46790000Y-38341226D01*
X46740247Y-38380461D01*
X46697384Y-38411426D01*
X46675490Y-38423557D01*
X46668929Y-38419800D01*
X46633532Y-38395768D01*
X46569922Y-38351141D01*
X46480715Y-38287816D01*
X46368525Y-38207686D01*
X46235967Y-38112649D01*
X46085655Y-38004598D01*
X45920204Y-37885428D01*
X45742229Y-37757035D01*
X45554343Y-37621314D01*
X45359163Y-37480160D01*
X45159301Y-37335469D01*
X44957373Y-37189134D01*
X44755993Y-37043052D01*
X44557776Y-36899118D01*
X44365336Y-36759226D01*
X44181288Y-36625272D01*
X44008247Y-36499151D01*
X43848827Y-36382758D01*
X43705642Y-36277989D01*
X43581307Y-36186737D01*
X43478437Y-36110899D01*
X43399646Y-36052370D01*
X43347548Y-36013044D01*
X43324759Y-35994818D01*
X43306507Y-35973330D01*
X43271125Y-35895168D01*
X43251410Y-35782502D01*
X43247262Y-35634513D01*
X43258583Y-35450383D01*
X43276334Y-35288511D01*
X43298118Y-35133842D01*
X43322788Y-34991755D01*
X43349272Y-34866799D01*
X43376499Y-34763522D01*
X43403398Y-34686473D01*
X43428898Y-34640202D01*
X43451928Y-34629255D01*
X43454922Y-34630758D01*
X43485655Y-34650544D01*
X43543262Y-34690121D01*
X43623412Y-34746429D01*
X43721777Y-34816410D01*
X43834027Y-34897007D01*
X43955831Y-34985161D01*
X43972724Y-34997433D01*
X44079057Y-35074605D01*
X44212680Y-35171498D01*
X44369280Y-35284988D01*
X44544548Y-35411953D01*
X44734171Y-35549272D01*
X44933839Y-35693822D01*
X45139241Y-35842481D01*
X45346065Y-35992128D01*
X45550000Y-36139640D01*
X46670000Y-36949631D01*
X46866200Y-36845379D01*
X46898356Y-36828209D01*
X47163979Y-36680826D01*
X47443852Y-36516640D01*
X47723888Y-36344098D01*
X47990000Y-36171644D01*
X48285799Y-35966890D01*
X48621604Y-35711798D01*
X48918444Y-35458117D01*
X49176845Y-35205103D01*
X49397330Y-34952014D01*
X49580425Y-34698107D01*
X49726652Y-34442639D01*
X49836538Y-34184868D01*
X49910605Y-33924051D01*
X49949379Y-33659445D01*
X49953383Y-33390308D01*
X49951740Y-33359116D01*
X49941353Y-33224457D01*
X49924945Y-33091455D01*
X49901301Y-32955897D01*
X49869203Y-32813573D01*
X49827436Y-32660269D01*
X49774781Y-32491774D01*
X49710024Y-32303876D01*
X49631947Y-32092364D01*
X49539333Y-31853025D01*
X49430967Y-31581647D01*
X49330966Y-31331295D01*
X49221831Y-31049155D01*
X49128375Y-30795058D01*
X49049438Y-30564673D01*
X48983855Y-30353667D01*
X48930466Y-30157710D01*
X48888106Y-29972470D01*
X48855614Y-29793616D01*
X48831827Y-29616815D01*
X48815582Y-29437737D01*
X48805718Y-29252049D01*
X48794027Y-28936801D01*
X47317014Y-28936801D01*
X47081362Y-28936737D01*
X46854080Y-28936548D01*
X46641881Y-28936244D01*
X46447882Y-28935836D01*
X46275195Y-28935335D01*
X46126935Y-28934751D01*
X46006218Y-28934095D01*
X45916156Y-28933376D01*
X45859866Y-28932607D01*
X45840461Y-28931797D01*
X45846916Y-28913148D01*
X45865527Y-28861011D01*
X45894770Y-28779631D01*
X45933120Y-28673237D01*
X45979054Y-28546057D01*
X46031047Y-28402321D01*
X46087575Y-28246257D01*
X46334227Y-27565721D01*
X48288813Y-27560619D01*
X48425578Y-27560298D01*
X48695831Y-27559888D01*
X48953026Y-27559788D01*
X49194470Y-27559987D01*
G37*
G36*
X44469876Y-27555775D02*
G01*
X44717119Y-27556150D01*
X44950810Y-27556846D01*
X45168011Y-27557834D01*
X45365783Y-27559089D01*
X45541186Y-27560584D01*
X45691283Y-27562292D01*
X45813135Y-27564187D01*
X45903803Y-27566242D01*
X45960348Y-27568430D01*
X45979831Y-27570725D01*
X45974426Y-27589087D01*
X45957044Y-27641364D01*
X45929146Y-27723024D01*
X45892242Y-27829705D01*
X45847840Y-27957047D01*
X45797450Y-28100688D01*
X45742582Y-28256265D01*
X45505502Y-28926793D01*
X45042751Y-28932166D01*
X44964020Y-28933204D01*
X44840617Y-28935375D01*
X44734947Y-28937913D01*
X44652576Y-28940653D01*
X44599072Y-28943426D01*
X44580000Y-28946066D01*
X44576729Y-28959018D01*
X44563627Y-29006452D01*
X44541695Y-29084369D01*
X44512207Y-29188287D01*
X44476434Y-29313724D01*
X44435650Y-29456196D01*
X44391127Y-29611221D01*
X44314054Y-29880345D01*
X44147866Y-30469136D01*
X43990304Y-31039338D01*
X43841983Y-31588567D01*
X43703517Y-32114438D01*
X43575522Y-32614567D01*
X43458610Y-33086567D01*
X43353398Y-33528055D01*
X43260498Y-33936645D01*
X43180527Y-34309953D01*
X43152427Y-34449475D01*
X43111652Y-34665820D01*
X43075675Y-34874034D01*
X43045087Y-35069704D01*
X43020478Y-35248416D01*
X43002441Y-35405759D01*
X42991565Y-35537319D01*
X42988442Y-35638684D01*
X42993663Y-35705442D01*
X43006183Y-35768094D01*
X42941830Y-35730107D01*
X42926386Y-35720853D01*
X42746737Y-35589403D01*
X42594272Y-35429828D01*
X42468483Y-35241376D01*
X42368863Y-35023298D01*
X42294901Y-34774842D01*
X42283529Y-34716989D01*
X42266606Y-34583191D01*
X42255395Y-34423738D01*
X42249956Y-34247738D01*
X42250347Y-34064300D01*
X42256626Y-33882532D01*
X42268853Y-33711543D01*
X42287086Y-33560442D01*
X42289152Y-33547113D01*
X42300662Y-33476390D01*
X42313622Y-33403272D01*
X42328566Y-33325756D01*
X42346026Y-33241836D01*
X42366533Y-33149508D01*
X42390620Y-33046768D01*
X42418819Y-32931609D01*
X42451661Y-32802028D01*
X42489680Y-32656020D01*
X42533408Y-32491580D01*
X42583376Y-32306703D01*
X42640117Y-32099385D01*
X42704162Y-31867620D01*
X42776045Y-31609405D01*
X42856296Y-31322733D01*
X42945449Y-31005602D01*
X43044036Y-30656005D01*
X43152588Y-30271938D01*
X43271637Y-29851396D01*
X43313427Y-29703460D01*
X43361674Y-29531600D01*
X43405497Y-29374333D01*
X43443803Y-29235641D01*
X43475500Y-29119508D01*
X43499494Y-29029918D01*
X43514692Y-28970854D01*
X43520000Y-28946299D01*
X43516728Y-28937630D01*
X43496730Y-28927580D01*
X43453620Y-28920545D01*
X43381771Y-28915744D01*
X43275556Y-28912397D01*
X43031112Y-28906777D01*
X42846450Y-28246257D01*
X42812011Y-28122868D01*
X42771215Y-27976121D01*
X42734999Y-27845208D01*
X42704612Y-27734671D01*
X42681301Y-27649051D01*
X42666312Y-27592889D01*
X42660894Y-27570725D01*
X42667582Y-27569369D01*
X42709029Y-27567133D01*
X42785817Y-27565020D01*
X42895011Y-27563056D01*
X43033673Y-27561267D01*
X43198865Y-27559681D01*
X43387652Y-27558324D01*
X43597096Y-27557222D01*
X43824260Y-27556401D01*
X44066207Y-27555890D01*
X44320000Y-27555714D01*
X44469876Y-27555775D01*
G37*
G36*
X62165615Y-21356055D02*
G01*
X62514140Y-21358368D01*
X63022682Y-21362439D01*
X63462664Y-21366969D01*
X63837752Y-21372041D01*
X64151615Y-21377737D01*
X64407921Y-21384141D01*
X64610338Y-21391335D01*
X64762535Y-21399402D01*
X64868178Y-21408425D01*
X64930938Y-21418487D01*
X65126996Y-21479004D01*
X65362422Y-21582670D01*
X65564338Y-21706275D01*
X65712272Y-21838804D01*
X65715307Y-21842355D01*
X65773718Y-21913916D01*
X65821956Y-21984206D01*
X65860925Y-22060800D01*
X65891529Y-22151272D01*
X65914672Y-22263199D01*
X65931259Y-22404154D01*
X65942194Y-22581713D01*
X65948380Y-22803450D01*
X65950722Y-23076940D01*
X65950124Y-23409759D01*
X65947490Y-23809482D01*
X65946417Y-23947475D01*
X65943524Y-24287191D01*
X65940456Y-24562863D01*
X65936765Y-24782188D01*
X65932005Y-24952864D01*
X65925729Y-25082589D01*
X65917491Y-25179059D01*
X65906843Y-25249975D01*
X65893339Y-25303032D01*
X65876532Y-25345929D01*
X65855976Y-25386364D01*
X65780682Y-25505919D01*
X65595475Y-25700696D01*
X65353372Y-25853518D01*
X65051966Y-25965729D01*
X64688856Y-26038672D01*
X64648810Y-26041048D01*
X64534225Y-26043954D01*
X64352414Y-26046681D01*
X64107460Y-26049216D01*
X63803447Y-26051543D01*
X63444459Y-26053650D01*
X63034577Y-26055521D01*
X62577885Y-26057144D01*
X62078466Y-26058503D01*
X61540404Y-26059585D01*
X60967781Y-26060375D01*
X60364680Y-26060860D01*
X59735185Y-26061025D01*
X59083378Y-26060856D01*
X58413343Y-26060340D01*
X58041314Y-26059951D01*
X57283704Y-26059093D01*
X56595497Y-26058189D01*
X55973209Y-26057200D01*
X55413355Y-26056086D01*
X54912453Y-26054808D01*
X54467017Y-26053327D01*
X54073563Y-26051603D01*
X53728609Y-26049597D01*
X53428668Y-26047270D01*
X53170258Y-26044583D01*
X52949893Y-26041497D01*
X52764091Y-26037972D01*
X52609367Y-26033969D01*
X52482236Y-26029448D01*
X52379215Y-26024372D01*
X52296820Y-26018699D01*
X52231566Y-26012391D01*
X52179970Y-26005410D01*
X52138547Y-25997714D01*
X52103812Y-25989266D01*
X52014451Y-25963247D01*
X51724065Y-25846493D01*
X51497536Y-25696264D01*
X51331468Y-25509844D01*
X51222464Y-25284519D01*
X51220499Y-25278523D01*
X51197461Y-25189175D01*
X51182313Y-25080534D01*
X51174238Y-24938838D01*
X51172421Y-24750323D01*
X51176046Y-24501228D01*
X51176070Y-24500071D01*
X51182026Y-24268075D01*
X51189596Y-24096780D01*
X51200488Y-23972463D01*
X51216408Y-23881399D01*
X51239061Y-23809862D01*
X51270154Y-23744128D01*
X51345217Y-23624278D01*
X51521556Y-23440318D01*
X51755420Y-23293981D01*
X52052149Y-23181426D01*
X52064744Y-23177848D01*
X52117121Y-23165502D01*
X52181712Y-23154772D01*
X52264180Y-23145482D01*
X52370184Y-23137457D01*
X52505386Y-23130519D01*
X52675447Y-23124493D01*
X52886028Y-23119202D01*
X53142790Y-23114470D01*
X53451394Y-23110122D01*
X53817500Y-23105980D01*
X54246771Y-23101868D01*
X54744868Y-23097612D01*
X54958857Y-23095807D01*
X55447658Y-23091227D01*
X55868164Y-23086505D01*
X56224805Y-23081521D01*
X56522014Y-23076158D01*
X56764221Y-23070298D01*
X56955860Y-23063823D01*
X57101360Y-23056614D01*
X57205155Y-23048554D01*
X57271675Y-23039525D01*
X57305351Y-23029408D01*
X57313508Y-23024618D01*
X57353833Y-22990949D01*
X57376667Y-22938879D01*
X57386832Y-22849734D01*
X57389149Y-22704839D01*
X57389109Y-22677884D01*
X57385888Y-22542887D01*
X57374069Y-22460736D01*
X57348831Y-22412755D01*
X57305351Y-22380269D01*
X57284663Y-22373920D01*
X57235690Y-22367216D01*
X57156694Y-22361228D01*
X57044255Y-22355919D01*
X56894953Y-22351255D01*
X56705368Y-22347202D01*
X56472079Y-22343723D01*
X56191665Y-22340785D01*
X55860708Y-22338352D01*
X55475785Y-22336389D01*
X55033478Y-22334861D01*
X54530365Y-22333734D01*
X53963027Y-22332972D01*
X53328044Y-22332541D01*
X52621994Y-22332405D01*
X48022434Y-22332405D01*
X48012778Y-24203886D01*
X48003123Y-26075366D01*
X47445161Y-26075366D01*
X46887199Y-26075366D01*
X46877543Y-24203886D01*
X46867888Y-22332405D01*
X46244061Y-22322193D01*
X45620234Y-22311982D01*
X45620234Y-21827405D01*
X45620234Y-21342829D01*
X51476759Y-21354137D01*
X57333284Y-21365446D01*
X57628032Y-21448598D01*
X57794724Y-21502018D01*
X58065318Y-21627551D01*
X58272093Y-21785354D01*
X58418566Y-21978471D01*
X58508259Y-22209946D01*
X58517626Y-22257838D01*
X58532944Y-22406330D01*
X58540258Y-22596721D01*
X58538446Y-22806838D01*
X58532536Y-22958122D01*
X58521184Y-23111526D01*
X58502678Y-23225195D01*
X58473450Y-23319076D01*
X58429929Y-23413117D01*
X58340615Y-23552030D01*
X58157904Y-23726513D01*
X57914126Y-23863413D01*
X57607762Y-23963512D01*
X57237291Y-24027595D01*
X57172390Y-24032618D01*
X57026493Y-24038982D01*
X56819807Y-24044875D01*
X56560153Y-24050181D01*
X56255352Y-24054788D01*
X55913227Y-24058581D01*
X55541598Y-24061447D01*
X55148287Y-24063271D01*
X54741114Y-24063940D01*
X54305191Y-24064413D01*
X53829168Y-24066166D01*
X53425252Y-24069234D01*
X53092131Y-24073640D01*
X52828492Y-24079407D01*
X52633021Y-24086558D01*
X52504406Y-24095118D01*
X52441334Y-24105109D01*
X52324046Y-24145996D01*
X52324046Y-24569342D01*
X52324206Y-24667666D01*
X52326463Y-24820177D01*
X52333418Y-24919453D01*
X52347608Y-24979763D01*
X52371571Y-25015374D01*
X52407844Y-25040552D01*
X52447428Y-25046660D01*
X52558184Y-25053117D01*
X52734354Y-25059096D01*
X52971124Y-25064597D01*
X53263680Y-25069622D01*
X53607208Y-25074173D01*
X53996893Y-25078250D01*
X54427921Y-25081855D01*
X54895478Y-25084989D01*
X55394750Y-25087653D01*
X55920922Y-25089849D01*
X56469181Y-25091578D01*
X57034712Y-25092841D01*
X57612700Y-25093639D01*
X58198332Y-25093974D01*
X58786793Y-25093847D01*
X59373270Y-25093259D01*
X59952947Y-25092212D01*
X60521010Y-25090706D01*
X61072646Y-25088743D01*
X61603040Y-25086324D01*
X62107378Y-25083451D01*
X62580846Y-25080124D01*
X63018629Y-25076345D01*
X63415913Y-25072116D01*
X63767884Y-25067437D01*
X64069728Y-25062310D01*
X64316630Y-25056736D01*
X64503776Y-25050716D01*
X64626353Y-25044251D01*
X64679545Y-25037344D01*
X64800586Y-24986271D01*
X64800586Y-23725372D01*
X64800586Y-22464474D01*
X64699842Y-22398439D01*
X64697162Y-22396715D01*
X64672462Y-22383881D01*
X64638383Y-22372810D01*
X64589500Y-22363341D01*
X64520388Y-22355314D01*
X64425620Y-22348571D01*
X64299771Y-22342950D01*
X64137416Y-22338292D01*
X63933128Y-22334437D01*
X63681483Y-22331226D01*
X63377053Y-22328497D01*
X63014414Y-22326093D01*
X62588139Y-22323851D01*
X62092804Y-22321614D01*
X59586510Y-22310823D01*
X59586510Y-21825442D01*
X59586510Y-21340062D01*
X62165615Y-21356055D01*
G37*
G36*
X50163929Y-24380792D02*
G01*
X50163929Y-26075366D01*
X49586656Y-26075366D01*
X49009384Y-26075366D01*
X49009384Y-24380792D01*
X49009384Y-22686217D01*
X49586656Y-22686217D01*
X50163929Y-22686217D01*
X50163929Y-24380792D01*
G37*
G36*
X43497360Y-20093781D02*
G01*
X43497360Y-20339883D01*
X43207700Y-20339883D01*
X43178678Y-20339891D01*
X43024071Y-20342657D01*
X42912920Y-20357577D01*
X42837710Y-20395039D01*
X42790927Y-20465427D01*
X42765056Y-20579126D01*
X42752583Y-20746524D01*
X42745994Y-20978005D01*
X42745406Y-21003321D01*
X42739906Y-21204786D01*
X42733074Y-21345800D01*
X42722833Y-21439052D01*
X42707106Y-21497233D01*
X42683817Y-21533031D01*
X42650888Y-21559137D01*
X42567906Y-21614161D01*
X42650888Y-21681318D01*
X42654258Y-21684069D01*
X42686121Y-21715511D01*
X42708669Y-21757124D01*
X42723954Y-21821770D01*
X42734026Y-21922310D01*
X42740936Y-22071606D01*
X42746735Y-22282522D01*
X42748785Y-22353965D01*
X42757440Y-22541388D01*
X42769368Y-22698549D01*
X42783270Y-22810708D01*
X42797849Y-22863123D01*
X42846120Y-22886496D01*
X42970538Y-22903861D01*
X43166730Y-22909677D01*
X43497360Y-22909677D01*
X43497360Y-23155779D01*
X43497360Y-23401881D01*
X43078372Y-23387005D01*
X42892825Y-23377800D01*
X42689207Y-23354178D01*
X42536951Y-23309714D01*
X42428307Y-23235493D01*
X42355526Y-23122601D01*
X42310858Y-22962124D01*
X42286554Y-22745147D01*
X42274863Y-22462756D01*
X42272568Y-22385991D01*
X42263654Y-22198055D01*
X42251563Y-22040679D01*
X42237590Y-21928505D01*
X42223029Y-21876173D01*
X42220856Y-21873740D01*
X42156161Y-21842497D01*
X42058929Y-21829619D01*
X41933137Y-21829619D01*
X41933137Y-21624780D01*
X41933137Y-21419941D01*
X42056041Y-21419941D01*
X42102638Y-21418845D01*
X42168650Y-21407054D01*
X42214381Y-21373637D01*
X42243521Y-21308027D01*
X42259764Y-21199656D01*
X42266802Y-21037955D01*
X42268328Y-20812358D01*
X42268625Y-20691323D01*
X42271506Y-20511355D01*
X42278929Y-20382835D01*
X42292681Y-20290705D01*
X42314551Y-20219907D01*
X42346325Y-20155382D01*
X42372889Y-20110715D01*
X42449537Y-20013314D01*
X42544431Y-19945321D01*
X42671550Y-19901130D01*
X42844870Y-19875131D01*
X43078372Y-19861719D01*
X43497360Y-19847679D01*
X43497360Y-20093781D01*
G37*
G36*
X44502932Y-19215243D02*
G01*
X44503147Y-19247628D01*
X44513612Y-19378354D01*
X44548067Y-19479420D01*
X44617884Y-19587677D01*
X44732836Y-19743988D01*
X45083427Y-19743988D01*
X45434017Y-19743988D01*
X45434017Y-20116422D01*
X45434017Y-20488856D01*
X45084679Y-20488856D01*
X44735342Y-20488856D01*
X44581893Y-20692097D01*
X44428445Y-20895338D01*
X44429622Y-21371789D01*
X44430513Y-21536100D01*
X44434086Y-21684854D01*
X44442578Y-21785865D01*
X44458326Y-21853955D01*
X44483669Y-21903946D01*
X44520944Y-21950660D01*
X44559179Y-21990631D01*
X44620518Y-22030941D01*
X44704256Y-22048949D01*
X44836336Y-22053079D01*
X45061583Y-22053079D01*
X45061583Y-22332405D01*
X45061583Y-22611730D01*
X44800879Y-22611730D01*
X44540175Y-22611730D01*
X44540175Y-22385047D01*
X44539459Y-22324380D01*
X44527298Y-22200963D01*
X44491756Y-22102649D01*
X44422132Y-21993992D01*
X44304088Y-21829619D01*
X43900724Y-21829619D01*
X43497360Y-21829619D01*
X43497360Y-21364076D01*
X43497360Y-20898534D01*
X43897727Y-20896834D01*
X44298093Y-20895134D01*
X44475000Y-20660114D01*
X44651906Y-20425094D01*
X44651906Y-20115989D01*
X44651774Y-20068804D01*
X44647471Y-19924727D01*
X44633472Y-19827110D01*
X44604905Y-19753721D01*
X44556902Y-19682328D01*
X44548121Y-19670876D01*
X44493204Y-19607856D01*
X44436687Y-19574015D01*
X44354285Y-19560328D01*
X44221711Y-19557771D01*
X43981524Y-19557771D01*
X43981524Y-19278446D01*
X43981524Y-18999120D01*
X44242228Y-18999120D01*
X44502932Y-18999120D01*
X44502932Y-19215243D01*
G37*
D11*
X60176000Y-46738000D02*
X60176000Y-40988000D01*
X63776000Y-40988000D02*
X63776000Y-46738000D01*
X63776000Y-46738000D02*
X60176000Y-46738000D01*
X50365000Y-42618000D02*
X50365000Y-43068000D01*
X57585000Y-43068000D02*
X58875000Y-43068000D01*
X57135000Y-49838000D02*
X57585000Y-49838000D01*
X57135000Y-42618000D02*
X57585000Y-42618000D01*
X50365000Y-49838000D02*
X50365000Y-49388000D01*
X50815000Y-49838000D02*
X50365000Y-49838000D01*
X57585000Y-42618000D02*
X57585000Y-43068000D01*
X57585000Y-49838000D02*
X57585000Y-49388000D01*
X50815000Y-42618000D02*
X50365000Y-42618000D01*
X58382000Y-54386000D02*
X62522000Y-54386000D01*
X62522000Y-54386000D02*
X62522000Y-54086000D01*
X62522000Y-51546000D02*
X62522000Y-51246000D01*
X58382000Y-51246000D02*
X58382000Y-51546000D01*
X62522000Y-51246000D02*
X58382000Y-51246000D01*
X58382000Y-54086000D02*
X58382000Y-54386000D01*
X61738742Y-54849500D02*
X62213258Y-54849500D01*
X61738742Y-55894500D02*
X62213258Y-55894500D01*
X58690742Y-54833500D02*
X59165258Y-54833500D01*
X58690742Y-55878500D02*
X59165258Y-55878500D01*
X46322000Y-41136000D02*
X47312000Y-41136000D01*
X46322000Y-48306000D02*
X46322000Y-47256000D01*
X46322000Y-40086000D02*
X46322000Y-41136000D01*
X45172000Y-40086000D02*
X46322000Y-40086000D01*
X45172000Y-48306000D02*
X46322000Y-48306000D01*
X43202000Y-41256000D02*
X43202000Y-47136000D01*
X59438000Y-39637580D02*
X59438000Y-39356420D01*
X58418000Y-39637580D02*
X58418000Y-39356420D01*
X57914000Y-39637580D02*
X57914000Y-39356420D01*
X56894000Y-39637580D02*
X56894000Y-39356420D01*
X55370000Y-39637580D02*
X55370000Y-39356420D01*
X56390000Y-39637580D02*
X56390000Y-39356420D01*
X59942000Y-48500420D02*
X59942000Y-48781580D01*
X60962000Y-48500420D02*
X60962000Y-48781580D01*
X62486000Y-48500420D02*
X62486000Y-48781580D01*
X61466000Y-48500420D02*
X61466000Y-48781580D01*
X64514000Y-45071420D02*
X64514000Y-45352580D01*
X65534000Y-45071420D02*
X65534000Y-45352580D01*
X64514000Y-42304580D02*
X64514000Y-42023420D01*
X65534000Y-42304580D02*
X65534000Y-42023420D01*
%LPC*%
D12*
X61976000Y-45538000D03*
X61976000Y-41838000D03*
D13*
X56725000Y-42065500D03*
X56225000Y-42065500D03*
X55725000Y-42065500D03*
X55225000Y-42065500D03*
X54725000Y-42065500D03*
X54225000Y-42065500D03*
X53725000Y-42065500D03*
X53225000Y-42065500D03*
X52725000Y-42065500D03*
X52225000Y-42065500D03*
X51725000Y-42065500D03*
X51225000Y-42065500D03*
D14*
X49812500Y-43478000D03*
X49812500Y-43978000D03*
X49812500Y-44478000D03*
X49812500Y-44978000D03*
X49812500Y-45478000D03*
X49812500Y-45978000D03*
X49812500Y-46478000D03*
X49812500Y-46978000D03*
X49812500Y-47478000D03*
X49812500Y-47978000D03*
X49812500Y-48478000D03*
X49812500Y-48978000D03*
D13*
X51225000Y-50390500D03*
X51725000Y-50390500D03*
X52225000Y-50390500D03*
X52725000Y-50390500D03*
X53225000Y-50390500D03*
X53725000Y-50390500D03*
X54225000Y-50390500D03*
X54725000Y-50390500D03*
X55225000Y-50390500D03*
X55725000Y-50390500D03*
X56225000Y-50390500D03*
X56725000Y-50390500D03*
D14*
X58137500Y-48978000D03*
X58137500Y-48478000D03*
X58137500Y-47978000D03*
X58137500Y-47478000D03*
X58137500Y-46978000D03*
X58137500Y-46478000D03*
X58137500Y-45978000D03*
X58137500Y-45478000D03*
X58137500Y-44978000D03*
X58137500Y-44478000D03*
X58137500Y-43978000D03*
X58137500Y-43478000D03*
D15*
X54000000Y-34052800D03*
X54000000Y-54542800D03*
D16*
X58352000Y-52816000D03*
X62552000Y-52816000D03*
D17*
X61151000Y-55372000D03*
X62801000Y-55372000D03*
X58103000Y-55356000D03*
X59753000Y-55356000D03*
D18*
X44012000Y-40396000D03*
X44012000Y-47996000D03*
D19*
X46537000Y-46696000D03*
X46537000Y-45696000D03*
X46537000Y-44696000D03*
X46537000Y-43696000D03*
X46537000Y-42696000D03*
X46537000Y-41696000D03*
D20*
X58928000Y-38722000D03*
X58928000Y-40272000D03*
X57404000Y-38722000D03*
X57404000Y-40272000D03*
X55880000Y-40272000D03*
X55880000Y-38722000D03*
D21*
X60452000Y-49416000D03*
X60452000Y-47866000D03*
X61976000Y-47866000D03*
X61976000Y-49416000D03*
X65024000Y-45987000D03*
X65024000Y-44437000D03*
D20*
X65024000Y-42939000D03*
X65024000Y-41389000D03*
%LPD*%
M02*
